<mxfile host="app.diagrams.net" modified="2022-04-05T23:10:24.652Z" agent="5.0 (X11)" etag="ohBzu8XjpCAM1XbzwyJN" version="17.1.3" type="github">
  <diagram id="xfNn82Gd31M1yHD5OVeT" name="Page-1">
    <mxGraphModel dx="1354" dy="693" grid="1" gridSize="10" guides="1" tooltips="1" connect="1" arrows="1" fold="1" page="1" pageScale="1" pageWidth="850" pageHeight="1100" math="0" shadow="0">
      <root>
        <mxCell id="0" />
        <mxCell id="1" parent="0" />
        <mxCell id="k3ciUnqlbgqMXSpKk9nA-2" value="&lt;font style=&quot;font-size: 28px&quot;&gt;Ride&lt;/font&gt;" style="rounded=0;whiteSpace=wrap;html=1;" vertex="1" parent="1">
          <mxGeometry x="20" y="250" width="80" height="60" as="geometry" />
        </mxCell>
        <mxCell id="k3ciUnqlbgqMXSpKk9nA-4" value="" style="shape=flexArrow;endArrow=classic;html=1;rounded=0;fontSize=28;width=44;endSize=12.67;endWidth=22;" edge="1" parent="1">
          <mxGeometry width="50" height="50" relative="1" as="geometry">
            <mxPoint x="230" y="280" as="sourcePoint" />
            <mxPoint x="110" y="280" as="targetPoint" />
            <Array as="points">
              <mxPoint x="200" y="280" />
            </Array>
          </mxGeometry>
        </mxCell>
        <mxCell id="k3ciUnqlbgqMXSpKk9nA-5" value="&lt;font style=&quot;font-size: 20px&quot;&gt;Dequeue&lt;/font&gt;" style="edgeLabel;html=1;align=center;verticalAlign=middle;resizable=0;points=[];fontSize=28;" vertex="1" connectable="0" parent="k3ciUnqlbgqMXSpKk9nA-4">
          <mxGeometry x="0.4364" y="-1" relative="1" as="geometry">
            <mxPoint x="29" y="1" as="offset" />
          </mxGeometry>
        </mxCell>
        <mxCell id="k3ciUnqlbgqMXSpKk9nA-7" value="&lt;div style=&quot;font-size: 12px&quot;&gt;&lt;font style=&quot;font-size: 12px&quot;&gt;First in line&lt;br&gt;&lt;/font&gt;&lt;/div&gt;" style="shape=umlActor;verticalLabelPosition=bottom;verticalAlign=top;html=1;outlineConnect=0;fontSize=20;strokeWidth=2;shadow=0;sketch=1;fillStyle=auto;gradientColor=none;gradientDirection=north;" vertex="1" parent="1">
          <mxGeometry x="240" y="250" width="30" height="60" as="geometry" />
        </mxCell>
        <mxCell id="k3ciUnqlbgqMXSpKk9nA-8" value="" style="shape=umlActor;verticalLabelPosition=bottom;verticalAlign=top;html=1;outlineConnect=0;fontSize=16;strokeWidth=2;sketch=1;" vertex="1" parent="1">
          <mxGeometry x="280" y="250" width="30" height="60" as="geometry" />
        </mxCell>
        <mxCell id="k3ciUnqlbgqMXSpKk9nA-10" value="" style="shape=umlActor;verticalLabelPosition=bottom;verticalAlign=top;html=1;outlineConnect=0;fontSize=16;strokeWidth=2;sketch=1;" vertex="1" parent="1">
          <mxGeometry x="320" y="250" width="30" height="60" as="geometry" />
        </mxCell>
        <mxCell id="k3ciUnqlbgqMXSpKk9nA-11" value="" style="shape=umlActor;verticalLabelPosition=bottom;verticalAlign=top;html=1;outlineConnect=0;fontSize=16;strokeWidth=2;sketch=1;" vertex="1" parent="1">
          <mxGeometry x="360" y="250" width="30" height="60" as="geometry" />
        </mxCell>
        <mxCell id="k3ciUnqlbgqMXSpKk9nA-12" value="" style="shape=umlActor;verticalLabelPosition=bottom;verticalAlign=top;html=1;outlineConnect=0;fontSize=16;strokeWidth=2;sketch=1;" vertex="1" parent="1">
          <mxGeometry x="400" y="250" width="30" height="60" as="geometry" />
        </mxCell>
        <mxCell id="k3ciUnqlbgqMXSpKk9nA-13" value="" style="shape=umlActor;verticalLabelPosition=bottom;verticalAlign=top;html=1;outlineConnect=0;fontSize=16;strokeWidth=2;sketch=1;" vertex="1" parent="1">
          <mxGeometry x="440" y="250" width="30" height="60" as="geometry" />
        </mxCell>
        <mxCell id="k3ciUnqlbgqMXSpKk9nA-14" value="" style="shape=umlActor;verticalLabelPosition=bottom;verticalAlign=top;html=1;outlineConnect=0;fontSize=16;strokeWidth=2;sketch=1;" vertex="1" parent="1">
          <mxGeometry x="480" y="250" width="30" height="60" as="geometry" />
        </mxCell>
        <mxCell id="k3ciUnqlbgqMXSpKk9nA-15" value="&lt;font style=&quot;font-size: 12px&quot;&gt;Last in line&lt;/font&gt;" style="shape=umlActor;verticalLabelPosition=bottom;verticalAlign=top;html=1;outlineConnect=0;fontSize=16;strokeWidth=2;sketch=1;" vertex="1" parent="1">
          <mxGeometry x="520" y="250" width="30" height="60" as="geometry" />
        </mxCell>
        <mxCell id="k3ciUnqlbgqMXSpKk9nA-18" value="" style="shape=flexArrow;endArrow=classic;html=1;rounded=0;fontSize=28;width=44;endSize=12.67;endWidth=22;" edge="1" parent="1">
          <mxGeometry width="50" height="50" relative="1" as="geometry">
            <mxPoint x="680" y="280" as="sourcePoint" />
            <mxPoint x="560" y="279.76" as="targetPoint" />
            <Array as="points">
              <mxPoint x="650" y="279.76" />
            </Array>
          </mxGeometry>
        </mxCell>
        <mxCell id="k3ciUnqlbgqMXSpKk9nA-19" value="&lt;font style=&quot;font-size: 20px&quot;&gt;Enqueue&lt;/font&gt;" style="edgeLabel;html=1;align=center;verticalAlign=middle;resizable=0;points=[];fontSize=28;" vertex="1" connectable="0" parent="k3ciUnqlbgqMXSpKk9nA-18">
          <mxGeometry x="0.4364" y="-1" relative="1" as="geometry">
            <mxPoint x="29" y="1" as="offset" />
          </mxGeometry>
        </mxCell>
        <mxCell id="k3ciUnqlbgqMXSpKk9nA-21" value="&lt;font style=&quot;font-size: 12px&quot;&gt;Entering line&lt;/font&gt;" style="shape=umlActor;verticalLabelPosition=bottom;verticalAlign=top;html=1;outlineConnect=0;fontSize=16;strokeWidth=2;sketch=1;" vertex="1" parent="1">
          <mxGeometry x="690" y="250" width="30" height="60" as="geometry" />
        </mxCell>
      </root>
    </mxGraphModel>
  </diagram>
</mxfile>
